<?xml version="1.0" encoding="UTF-8"?><svg id="Layer_2" xmlns="http://www.w3.org/2000/svg" viewBox="0 0 3067.8 1088"><g id="Layer_1-2"><path d="m623.2,738.7c-5.2.3-8.3.6-11.4.6-35.8,0-71.6,0-107.4,0-5,0-10,0-15-.4-12.6-1-21.7-6.4-27.7-18.5-29.2-58.4-59-116.4-88.5-174.6-12.5-24.6-24.9-49.3-37.4-74-1.8-3.6-3.3-7.3-5.5-12.1,3.8-.6,6.7-1.4,9.7-1.5,36.2-1,72.5-1.9,108.7-2.7,4.1,0,8.2,0,12.2.3,17.1,1.4,28.7,10,34.5,26.3,2.1,5.9,4.6,11.6,7.5,18.5,23.3-12.5,39.2-29.6,43.9-54.8,3-16.4,4.7-33.3,4.7-50,.2-50.7-.3-101.5-1.1-152.2-.4-27.7-12.6-50.7-31.6-70.1-21.3-21.7-47.5-34.2-77.1-40.4-46.6-9.7-93.6-10.1-140.8-6.4-23.9,1.9-47.9,4.5-71.2,9.5-14.7,3.2-29.2,10.1-42.2,17.9-28.6,17.2-43.3,44.5-48.8,76.7-2.9,17.4-4.5,35.1-5.2,52.7-1.9,48.1-.2,96.1,5.1,143.9,3.7,32.9,18.8,59.4,46.6,77.9,25.9,17.2,54.5,26.2,85.8,26.3,5.9,0,11.8.2,17.6.7,12.8,1.2,21.8,8,27.5,19.5,17.4,35.4,34.8,70.7,52.2,106.1.4.7.3,1.7.5,3.6-2.9.5-5.9,1.3-8.8,1.3-41.7-.6-83.4-.2-125-2.2-47.9-2.3-92.7-16-133.1-42.6-56.7-37.3-87.8-90.5-96.2-157C-1.4,403.8-.4,346.1.9,288.6c.7-31.2,1-62.7,4.9-93.6C17.6,100.8,97.5,19.4,191,6.9c36.3-4.8,73.2-5.1,109.9-6.2,60.3-1.7,120.5-.3,180.7,4.7,100,8.3,176,74.9,195.5,173.4,14,70.6,17.5,142.1,11.5,213.8-2.5,29.7-6.3,59.5-11.4,88.9-9.8,56.4-39.7,100.4-86.6,133-20.2,14-20.9,17-9.9,38.7,12.3,24.2,24.5,48.5,36.7,72.8,1.8,3.6,3.3,7.3,5.7,12.7Z" style="fill:#6ec6ad;"/><path d="m1990.3,424.1c4.3,47.7,34.7,79.1,80.7,81.8,37.5,2.2,75.2,2.4,112.8,2.8,44,.4,87.9.5,131.9-.3,21.4-.4,34.7,8.2,43.1,27.9,9.6,22.4,21.4,44,32.2,65.9,2,4,3.8,8,6.4,13.4-4.4.7-7.7,1.6-11,1.6-109.2,0-218.5.3-327.7-.1-24.1,0-47.9-3.7-70.8-11.7-66.2-23-102.6-69.7-110.9-139-6.6-55.6-7.2-111.2-2.4-166.9,1.4-16.2,2.8-32.6,6.3-48.5,13.8-62.9,53.7-101.1,115-117.4,16.5-4.4,33.8-6.6,50.9-7.8,77.5-5.2,154.9-4.4,232.3,2.3,69.3,6,124.5,51,144.2,118.2,12.2,41.6,11.8,84.3,6.2,126.7-3.9,29.4-21.9,46.2-51.8,48.8-28.4,2.4-57,2.5-85.5,2.5-95.2.2-190.4,0-285.6-.1-5.3,0-10.7,0-16.1,0Zm321.2-109c3.7-38.9-23.5-72.4-61-75.6-24.3-2.1-48.8-4.2-73.2-4-42,.4-84.2,1.4-126.1,4.5-26.6,2-44.5,18.8-54.2,43.5-3.9,9.9-7,20.2-4.9,31.6h319.3Z" style="fill:#111722;"/><path d="m1019.7,617.1c-51.3-1.8-91.6-3.6-131.9-4.6-69.7-1.7-129.3-46.3-150.6-113-8-25-9.6-50.8-10.2-76.5-1-38.5-.9-77-.1-115.5.5-26.8,5.2-53.1,15.1-78.3,21.9-55.3,63.2-87,120.5-98.7,37-7.6,74.8-6.9,112.4-7.9,63-1.6,126,.6,188.8,5.5,86.6,6.8,141.2,67.9,150.1,144.6,7.7,66.3,7.1,133.1-.1,199.5-5.2,47.6-29.7,84.9-69.4,111.8-32.9,22.3-69.9,32-109.1,32.9-42.1.9-84.3.2-115.5.2Zm-.4-384.9c-31.1.9-56.4,1.5-81.8,2.4-5.9.2-11.7,1.1-17.6,1.8-45.1,5.1-73.1,31.2-75.9,76.3-2.4,38.8-2.1,77.9-.2,116.7,1.7,36,24.6,61.4,59.5,71,9.1,2.5,18.6,4.2,28,5.2,62.4,6.6,124.9,6,187.3.5,49.5-4.3,80.7-36,83.2-85.9,1.7-34.4,1.6-68.9-.1-103.3-2.4-47.5-31.2-76.6-76.7-79.6-37.1-2.4-74.2-3.7-105.7-5.1Z" style="fill:#111722;"/><path d="m1311.9,123.6c22.3-.2,41.6-.6,61-.5,13.6,0,27.2,1.5,40.7.9,15-.6,23.3,6.4,29.2,19.4,10.1,22.3,21.2,44.1,31.8,66.1,36.3,75.5,72.6,151,108.9,226.5,2.9,6.1,6.1,12,10.5,20.6,4.4-7.9,8-13.8,10.9-20,22.8-47.4,45.4-94.7,68-142.2,24-50.3,48.2-100.4,71.6-151,6.8-14.7,16.3-21.2,32.6-20.7,28.5,1,57.1.6,85.6.8,4.4,0,8.7.5,14.4.8-1.7,4.1-2.7,6.9-4.1,9.6-71.8,141.9-143.5,283.7-215.4,425.5-5.1,10.1-10.3,20.2-16.7,29.5-4.8,7-10.9,13.5-17.7,18.5-22.5,16.5-50.1,12.9-68.2-8.3-4.1-4.8-7.6-10.2-10.5-15.8-22.7-43.3-45.7-86.5-67.7-130.2-51.5-101.8-102.6-203.9-153.8-305.9-3.4-6.8-6.6-13.8-11.3-23.8Z" style="fill:#111722;"/><path d="m2693.4,371.8l52.4-62.5c3.8-4.5,6.9-7.8,9.7-11.2,10.3-12.4,20.5-24.8,30.8-37.2l1.6-1.9c30.3-36.6,60.5-73.1,90.3-110,13.7-17,29.8-24.8,51.7-23.7,27.1,1.4,54.3.5,81.6.5h15c-3.8,5.6-6.2,9.5-9.1,13.1-55.9,70.2-111.9,140.4-167.9,210.5-.8,1.1-1.7,2.1-2.6,3.2-14.4,17.7-14.3,21.7.3,39.9,57.2,71,114.3,141.9,171.4,212.9,2.4,3.1,4.5,6.4,7.4,10.6-3.1.5-4.8.9-6.5.9-32.2,0-64.4-.2-96.6.2-17.6.2-31.1-6.6-42.3-20.3-38-46.6-76.4-92.8-114.7-139.1-3-3.6-6-7.3-9-10.9-3.4-4.2-7-8.2-11.2-13.1l-52.4-61.9Z" style="fill:#6ec6ad;"/><path d="m2693.5,371.8l52.4,61.9c-4.2,4.9-7.8,8.9-11.2,13-40.7,49.3-81.7,98.3-121.9,148-12.8,15.8-27.7,23.5-47.9,23.1-33-.7-66.1-.2-101.2-.2,2.7-4.4,4.2-7.5,6.3-10,57.1-71,114.1-142,171.4-212.9,17.3-21.4,17.2-23.2-.3-45.1-56.3-70.4-112.5-141-168.7-211.6-2.7-3.4-5-7.1-9.1-12.8h20.8c27.1-.2,54.3.2,81.6-.6,18.8-.5,33.1,6.3,44.9,20.7,42.2,51.6,84.7,102.9,127.1,154.3,2.3,2.8,4.7,5.4,8.2,9.5l-52.4,62.6Z" style="fill:#111722;"/><path d="m1753.4,901.2c-11.6-5.1-20.8-12.3-27.4-21.7-6.7-9.4-10-20.3-10-32.7h38c.8,9.4,4.5,17,11.1,23.1,6.5,6,15.7,9,27.6,9s21.8-3,28.7-8.9c6.9-5.9,10.3-13.6,10.3-22.9s-2.1-13.2-6.4-17.8c-4.3-4.6-9.6-8.1-15.9-10.6-6.3-2.5-15.1-5.2-26.3-8.1-14.1-3.7-25.6-7.5-34.4-11.4-8.8-3.8-16.4-9.8-22.6-17.9-6.2-8.1-9.4-18.9-9.4-32.4s3.1-23.4,9.4-32.7c6.2-9.4,15-16.5,26.2-21.5,11.2-5,24.2-7.5,39-7.5,21,0,38.2,5.2,51.6,15.7,13.4,10.5,20.8,24.9,22.3,43.2h-39.3c-.6-7.9-4.4-14.6-11.2-20.3-6.9-5.6-15.9-8.4-27.1-8.4s-18.5,2.6-24.9,7.8c-6.4,5.2-9.7,12.7-9.7,22.4s2,12.1,6.1,16.4c4.1,4.3,9.2,7.6,15.4,10.1,6.2,2.5,14.8,5.2,25.6,8.1,14.3,3.9,26,7.9,35.1,11.8,9,3.9,16.7,10,23.1,18.2,6.3,8.2,9.5,19.2,9.5,32.9s-3,21.4-8.9,31.2c-5.9,9.8-14.5,17.6-25.9,23.5-11.3,5.9-24.7,8.9-40.1,8.9s-27.6-2.5-39.3-7.6Z" style="fill:#111722;"/><path d="m2090,690v29h-57.7v187.6h-35.5v-187.6h-58v-29h151.2Z" style="fill:#111722;"/><path d="m2201.6,690v138.1c0,16.4,4.3,28.8,12.9,37.1,8.6,8.3,20.6,12.5,36,12.5s27.7-4.2,36.3-12.5c8.6-8.3,12.9-20.7,12.9-37.1v-138.1h35.5v137.5c0,17.7-3.8,32.6-11.5,44.9-7.7,12.3-18,21.4-30.9,27.4-12.9,6-27.1,9-42.7,9s-29.8-3-42.5-9c-12.8-6-22.9-15.2-30.4-27.4-7.5-12.3-11.2-27.2-11.2-44.9v-137.5h35.5Z" style="fill:#111722;"/><path d="m2553.4,703.2c17.3,8.8,30.8,21.5,40.2,38,9.5,16.5,14.2,35.8,14.2,57.8s-4.7,41.1-14.2,57.4c-9.5,16.2-22.9,28.6-40.2,37.2-17.4,8.6-37.6,12.9-60.6,12.9h-70.8v-216.6h70.8c23.1,0,43.3,4.4,60.6,13.2Zm-2.3,153.8c13.5-13.7,20.3-33,20.3-58s-6.8-44.8-20.3-58.9c-13.5-14.1-32.9-21.2-58.3-21.2h-35.2v158.7h35.2c25.4,0,44.8-6.9,58.3-20.6Z" style="fill:#111722;"/><path d="m2719.1,690v216.6h-35.5v-216.6h35.5Z" style="fill:#111722;"/><path d="m2849.5,894.6c-16.9-9.5-30.3-22.6-40.2-39.6-9.9-16.9-14.8-36-14.8-57.2s4.9-40.2,14.8-57c9.9-16.8,23.3-30,40.2-39.4,16.9-9.5,35.5-14.2,55.6-14.2s39,4.7,55.9,14.2c16.9,9.5,30.3,22.6,40.1,39.4,9.8,16.8,14.6,35.8,14.6,57s-4.9,40.3-14.6,57.2c-9.8,16.9-23.1,30.1-40.1,39.6-16.9,9.5-35.6,14.2-55.9,14.2s-38.7-4.7-55.6-14.2Zm94-26.5c11.2-6.5,20-15.9,26.3-28.1,6.3-12.2,9.5-26.2,9.5-42.2s-3.2-30-9.5-42.1c-6.3-12-15.1-21.3-26.3-27.7-11.2-6.4-24-9.7-38.3-9.7s-27.1,3.2-38.3,9.7c-11.2,6.4-20,15.7-26.3,27.7-6.3,12.1-9.5,26.1-9.5,42.1s3.2,30.1,9.5,42.2c6.3,12.2,15.1,21.5,26.3,28.1,11.2,6.5,24,9.8,38.3,9.8s27.1-3.3,38.3-9.8Z" style="fill:#111722;"/></g></svg>