<?xml version="1.0" encoding="UTF-8"?><svg id="Layer_2" xmlns="http://www.w3.org/2000/svg" viewBox="0 0 541.3 192"><g id="Layer_1-2"><path d="m110,130.3c-.9,0-1.5.1-2,.1-6.3,0-12.6,0-19,0-.9,0-1.8,0-2.6,0-2.2-.2-3.8-1.1-4.9-3.3-5.1-10.3-10.4-20.5-15.6-30.8-2.2-4.3-4.4-8.7-6.6-13.1-.3-.6-.6-1.3-1-2.1.7-.1,1.2-.3,1.7-.3,6.4-.2,12.8-.3,19.2-.5.7,0,1.4,0,2.2,0,3,.2,5.1,1.8,6.1,4.6.4,1,.8,2,1.3,3.3,4.1-2.2,6.9-5.2,7.7-9.7.5-2.9.8-5.9.8-8.8,0-9,0-17.9-.2-26.9,0-4.9-2.2-8.9-5.6-12.4-3.8-3.8-8.4-6-13.6-7.1-8.2-1.7-16.5-1.8-24.8-1.1-4.2.3-8.4.8-12.6,1.7-2.6.6-5.1,1.8-7.4,3.2-5,3-7.6,7.9-8.6,13.5-.5,3.1-.8,6.2-.9,9.3-.3,8.5,0,17,.9,25.4.6,5.8,3.3,10.5,8.2,13.7,4.6,3,9.6,4.6,15.1,4.6,1,0,2.1,0,3.1.1,2.3.2,3.8,1.4,4.8,3.4,3.1,6.2,6.1,12.5,9.2,18.7,0,.1,0,.3,0,.6-.5,0-1,.2-1.5.2-7.4-.1-14.7,0-22.1-.4-8.4-.4-16.3-2.8-23.5-7.5-10-6.6-15.5-16-17-27.7C-.2,71.3,0,61.1.2,50.9c.1-5.5.2-11.1.9-16.5C3.1,17.8,17.2,3.4,33.7,1.2c6.4-.9,12.9-.9,19.4-1.1,10.6-.3,21.3,0,31.9.8,17.6,1.5,31.1,13.2,34.5,30.6,2.5,12.5,3.1,25.1,2,37.7-.4,5.2-1.1,10.5-2,15.7-1.7,10-7,17.7-15.3,23.5-3.6,2.5-3.7,3-1.7,6.8,2.2,4.3,4.3,8.6,6.5,12.8.3.6.6,1.3,1,2.2Z" style="fill:#6ec6ad;"/><path d="m351.2,74.8c.8,8.4,6.1,14,14.2,14.4,6.6.4,13.3.4,19.9.5,7.8,0,15.5,0,23.3,0,3.8,0,6.1,1.4,7.6,4.9,1.7,4,3.8,7.8,5.7,11.6.3.7.7,1.4,1.1,2.4-.8.1-1.4.3-1.9.3-19.3,0-38.6,0-57.8,0-4.2,0-8.4-.7-12.5-2.1-11.7-4.1-18.1-12.3-19.6-24.5-1.2-9.8-1.3-19.6-.4-29.4.3-2.9.5-5.8,1.1-8.6,2.4-11.1,9.5-17.8,20.3-20.7,2.9-.8,6-1.2,9-1.4,13.7-.9,27.3-.8,41,.4,12.2,1.1,22,9,25.4,20.9,2.1,7.3,2.1,14.9,1.1,22.4-.7,5.2-3.9,8.2-9.1,8.6-5,.4-10.1.4-15.1.4-16.8,0-33.6,0-50.4,0-.9,0-1.9,0-2.8,0Zm56.7-19.2c.7-6.9-4.1-12.8-10.8-13.3-4.3-.4-8.6-.7-12.9-.7-7.4,0-14.8.3-22.2.8-4.7.3-7.8,3.3-9.6,7.7-.7,1.7-1.2,3.6-.9,5.6h56.3Z" style="fill:#fff;"/><path d="m179.9,108.9c-9-.3-16.2-.6-23.3-.8-12.3-.3-22.8-8.2-26.6-19.9-1.4-4.4-1.7-9-1.8-13.5-.2-6.8-.2-13.6,0-20.4,0-4.7.9-9.4,2.7-13.8,3.9-9.8,11.2-15.4,21.3-17.4,6.5-1.3,13.2-1.2,19.8-1.4,11.1-.3,22.2.1,33.3,1,15.3,1.2,24.9,12,26.5,25.5,1.4,11.7,1.3,23.5,0,35.2-.9,8.4-5.2,15-12.2,19.7-5.8,3.9-12.3,5.7-19.3,5.8-7.4.2-14.9,0-20.4,0Zm0-67.9c-5.5.2-10,.3-14.4.4-1,0-2.1.2-3.1.3-8,.9-12.9,5.5-13.4,13.5-.4,6.8-.4,13.7,0,20.6.3,6.3,4.3,10.8,10.5,12.5,1.6.4,3.3.7,4.9.9,11,1.2,22,1.1,33,0,8.7-.8,14.2-6.3,14.7-15.2.3-6.1.3-12.2,0-18.2-.4-8.4-5.5-13.5-13.5-14-6.5-.4-13.1-.6-18.6-.9Z" style="fill:#fff;"/><path d="m231.5,21.8c3.9,0,7.3,0,10.8,0,2.4,0,4.8.3,7.2.2,2.6-.1,4.1,1.1,5.2,3.4,1.8,3.9,3.7,7.8,5.6,11.7,6.4,13.3,12.8,26.6,19.2,40,.5,1.1,1.1,2.1,1.9,3.6.8-1.4,1.4-2.4,1.9-3.5,4-8.4,8-16.7,12-25.1,4.2-8.9,8.5-17.7,12.6-26.6,1.2-2.6,2.9-3.7,5.8-3.7,5,.2,10.1.1,15.1.1.8,0,1.5,0,2.5.1-.3.7-.5,1.2-.7,1.7-12.7,25-25.3,50.1-38,75.1-.9,1.8-1.8,3.6-3,5.2-.8,1.2-1.9,2.4-3.1,3.3-4,2.9-8.8,2.3-12-1.5-.7-.8-1.3-1.8-1.9-2.8-4-7.6-8.1-15.3-12-23-9.1-18-18.1-36-27.1-54-.6-1.2-1.2-2.4-2-4.2Z" style="fill:#fff;"/><path d="m475.3,65.6l9.2-11c.7-.8,1.2-1.4,1.7-2,1.8-2.2,3.6-4.4,5.4-6.6l.3-.3c5.3-6.5,10.7-12.9,15.9-19.4,2.4-3,5.2-4.4,9.1-4.2,4.8.2,9.6,0,14.4,0h2.6c-.7,1-1.1,1.7-1.6,2.3-9.9,12.4-19.7,24.8-29.6,37.1-.1.2-.3.4-.5.6-2.5,3.1-2.5,3.8,0,7,10.1,12.5,20.2,25,30.2,37.6.4.5.8,1.1,1.3,1.9-.5,0-.8.2-1.1.2-5.7,0-11.4,0-17,0-3.1,0-5.5-1.2-7.5-3.6-6.7-8.2-13.5-16.4-20.2-24.5-.5-.6-1.1-1.3-1.6-1.9-.6-.7-1.2-1.4-2-2.3l-9.2-10.9Z" style="fill:#6ec6ad;"/><path d="m475.3,65.6l9.2,10.9c-.7.9-1.4,1.6-2,2.3-7.2,8.7-14.4,17.3-21.5,26.1-2.2,2.8-4.9,4.1-8.5,4.1-5.8-.1-11.7,0-17.9,0,.5-.8.7-1.3,1.1-1.8,10.1-12.5,20.1-25.1,30.2-37.6,3-3.8,3-4.1,0-7.9-9.9-12.4-19.8-24.9-29.8-37.3-.5-.6-.9-1.2-1.6-2.2h3.7c4.8,0,9.6,0,14.4-.1,3.3,0,5.8,1.1,7.9,3.7,7.4,9.1,14.9,18.2,22.4,27.2.4.5.8,1,1.4,1.7l-9.2,11Z" style="fill:#fff;"/><text transform="translate(299.6 160)" style="fill:#fff; font-family:Poppins-Medium, Poppins; font-size:55px; font-weight:500; letter-spacing:.1em;"><tspan x="0" y="0">STUDIO</tspan></text></g></svg>